<?xml version="1.0" encoding="iso-8859-1"?>
<!-- Generator: Adobe Illustrator 19.0.0, SVG Export Plug-In . SVG Version: 6.00 Build 0)  -->
<svg version="1.1" id="Layer_1" xmlns="http://www.w3.org/2000/svg" xmlns:xlink="http://www.w3.org/1999/xlink" x="0px" y="0px"
	 viewBox="0 0 511.999 511.999" style="enable-background:new 0 0 511.999 511.999;" xml:space="preserve">
<g>
	<g>
		<path d="M362.623,181.567c0-0.085,0.043-0.149,0.043-0.235v-10.667c0-20.971-15.211-38.464-35.179-42.027
			c-7.936-17.536-20.395-27.051-29.76-34.176c-3.883-2.944-9.728-7.403-9.728-9.152c0-6.528,1.579-9.813,3.968-14.784
			c2.709-5.653,6.08-12.693,6.635-24.448c0.981-21.312-11.968-39.68-31.531-44.672c-13.184-3.371-26.731-0.619-37.227,7.552
			c-10.496,8.149-16.512,20.437-16.512,33.707c0,13.397,3.669,21.205,6.613,27.456c2.347,4.992,4.053,8.576,4.053,15.211
			c0,1.728-5.867,6.187-9.728,9.152c-9.365,7.147-21.824,16.661-29.76,34.176c-19.968,3.541-35.179,21.035-35.179,42.005v10.667
			c0,0.085,0.043,0.149,0.043,0.235c-12.885,9.749-21.376,25.067-21.376,42.432v234.667c0,29.397,23.936,53.333,53.333,53.333
			h149.333c29.397,0,53.333-23.936,53.333-53.333V223.999C383.999,206.633,375.509,191.316,362.623,181.567z M227.221,111.444
			c8.896-6.784,18.112-13.803,18.112-26.112c0-11.413-3.221-18.283-6.08-24.32c-2.56-5.44-4.587-9.707-4.587-18.347
			c0-6.635,3.008-12.779,8.256-16.853c5.333-4.139,12.053-5.483,18.859-3.733c9.664,2.475,16.021,11.925,15.509,23.019
			c-0.341,7.424-2.219,11.328-4.565,16.235c-2.709,5.611-6.059,12.629-6.059,24c0,12.309,9.216,19.328,18.112,26.112
			c5.867,4.48,12.117,9.579,17.365,16.555h-92.288C215.103,121.023,221.354,115.924,227.221,111.444z M170.666,170.665
			c0-11.755,9.579-21.333,21.333-21.333h128c11.755,0,21.333,9.579,21.333,21.333v1.088c-3.456-0.704-7.019-1.088-10.667-1.088
			H181.333c-3.648,0-7.211,0.384-10.667,1.088V170.665z M362.666,458.665c0,17.643-14.357,32-32,32H181.333
			c-17.643,0-32-14.357-32-32v-10.667h53.333c5.888,0,10.667-4.779,10.667-10.667c0-5.888-4.779-10.667-10.667-10.667h-53.333
			v-42.667h32c5.888,0,10.667-4.779,10.667-10.667c0-5.888-4.779-10.667-10.667-10.667h-32v-42.667h53.333
			c5.888,0,10.667-4.779,10.667-10.667s-4.779-10.667-10.667-10.667h-53.333v-42.667h32c5.888,0,10.667-4.779,10.667-10.667
			s-4.779-10.667-10.667-10.667h-32v-10.667c0-17.643,14.357-32,32-32h149.333c17.643,0,32,14.357,32,32V458.665z"/>
	</g>
</g>
<g>
</g>
<g>
</g>
<g>
</g>
<g>
</g>
<g>
</g>
<g>
</g>
<g>
</g>
<g>
</g>
<g>
</g>
<g>
</g>
<g>
</g>
<g>
</g>
<g>
</g>
<g>
</g>
<g>
</g>
</svg>
