<?xml version="1.0" encoding="iso-8859-1"?>
<!-- Generator: Adobe Illustrator 21.0.0, SVG Export Plug-In . SVG Version: 6.00 Build 0)  -->
<svg version="1.1" id="Capa_1" xmlns="http://www.w3.org/2000/svg" xmlns:xlink="http://www.w3.org/1999/xlink" x="0px" y="0px"
	 viewBox="0 0 512 512" style="enable-background:new 0 0 512 512;" xml:space="preserve">
<g>
	<g>
		<path d="M243.263,67.277c-13.524-5.552-31.183-8.609-49.721-8.609s-36.195,3.058-49.72,8.609
			c-23.961,9.836-27.539,24.237-27.539,31.947s3.578,22.112,27.539,31.948c13.524,5.552,31.182,8.609,49.72,8.609
			c18.538,0,36.196-3.058,49.721-8.609c23.961-9.836,27.539-24.238,27.539-31.948S267.224,77.113,243.263,67.277z M193.542,109.782
			c-25.104,0-41.017-6.521-46.074-10.558c5.058-4.036,20.971-10.557,46.074-10.557c25.104,0,41.017,6.521,46.075,10.557
			C234.558,103.261,218.646,109.782,193.542,109.782z"/>
	</g>
</g>
<g>
	<g>
		<path d="M195.791,0C145.506,0,97.995,9.532,62.01,26.842C22.532,45.83,0.791,72.373,0.791,101.58v308.84
			c0,29.207,21.741,55.75,61.219,74.738C97.995,502.468,145.506,512,195.791,512c50.285,0,97.796-9.532,133.781-26.842
			c21.601-10.39,37.878-23.046,48.202-37.158h133.435V0H195.791z M360.791,410.42c0,16.798-16.118,34.185-44.223,47.704
			C284.558,473.521,241.665,482,195.791,482c-7.28,0-14.484-0.215-21.582-0.636v-32.26h-30v29.153
			c-25.932-3.883-49.604-10.71-69.195-20.133c-28.105-13.518-44.223-30.906-44.223-47.704V156.835
			c8.66,7.111,19.1,13.655,31.219,19.484c23.345,11.229,51.543,19.18,82.199,23.384v31.027h30v-28.167
			c7.12,0.392,14.32,0.598,21.582,0.598c50.285,0,97.796-9.532,133.781-26.841c12.119-5.829,22.559-12.373,31.219-19.484V410.42z
			 M316.568,149.284c-32.01,15.396-74.903,23.876-120.777,23.876c-45.874,0-88.768-8.48-120.777-23.876
			c-28.105-13.519-44.223-30.905-44.223-47.704c0-16.798,16.118-34.185,44.223-47.704C107.024,38.479,149.917,30,195.791,30
			c45.874,0,88.767,8.479,120.777,23.876c28.105,13.519,44.223,30.906,44.223,47.704
			C360.791,118.379,344.673,135.765,316.568,149.284z M481.209,418h-90.922c0.329-2.505,0.504-5.031,0.504-7.58V101.58
			c0-27.624-19.458-52.86-54.965-71.58h145.383V418z"/>
	</g>
</g>
<g>
	<g>
		<rect x="144.21" y="257.4" width="30" height="37.23"/>
	</g>
</g>
<g>
	<g>
		<rect x="144.21" y="321.3" width="30" height="37.23"/>
	</g>
</g>
<g>
	<g>
		<rect x="144.21" y="385.2" width="30" height="37.23"/>
	</g>
</g>
<g>
</g>
<g>
</g>
<g>
</g>
<g>
</g>
<g>
</g>
<g>
</g>
<g>
</g>
<g>
</g>
<g>
</g>
<g>
</g>
<g>
</g>
<g>
</g>
<g>
</g>
<g>
</g>
<g>
</g>
</svg>
