<?xml version="1.0" encoding="iso-8859-1"?>
<!-- Generator: Adobe Illustrator 19.0.0, SVG Export Plug-In . SVG Version: 6.00 Build 0)  -->
<svg version="1.1" id="Capa_1" xmlns="http://www.w3.org/2000/svg" xmlns:xlink="http://www.w3.org/1999/xlink" x="0px" y="0px"
	 viewBox="0 0 463 463" style="enable-background:new 0 0 463 463;" xml:space="preserve">
<g>
	<path d="M439.5,128H431v-16.5c0-8.547-6.953-15.5-15.5-15.5h-48c-8.547,0-15.5,6.953-15.5,15.5V128h-37.064l-4.013-25.575
		c-0.003-0.019-0.006-0.037-0.009-0.055l-0.005-0.033c-0.011-0.068-0.028-0.132-0.041-0.199c-0.058-0.317-0.137-0.631-0.237-0.941
		c-0.019-0.06-0.034-0.122-0.055-0.182c-0.031-0.089-0.071-0.176-0.106-0.264c-0.053-0.134-0.104-0.269-0.164-0.398
		c-0.036-0.079-0.079-0.155-0.118-0.233c-0.07-0.138-0.141-0.275-0.219-0.408c-0.042-0.072-0.088-0.141-0.133-0.212
		c-0.086-0.136-0.175-0.27-0.269-0.399c-0.024-0.033-0.043-0.068-0.067-0.1l-24-32c-1.416-1.889-3.64-3-6-3h-96
		c-2.36,0-4.584,1.111-6,3l-24,32c-0.024,0.032-0.044,0.067-0.067,0.1c-0.094,0.13-0.183,0.263-0.269,0.399
		c-0.045,0.071-0.091,0.141-0.133,0.213c-0.078,0.133-0.148,0.269-0.218,0.407c-0.04,0.078-0.083,0.155-0.119,0.234
		c-0.06,0.13-0.112,0.264-0.164,0.398c-0.035,0.088-0.075,0.175-0.106,0.264c-0.021,0.059-0.035,0.122-0.055,0.182
		c-0.1,0.31-0.178,0.624-0.237,0.941c-0.012,0.067-0.03,0.132-0.041,0.199l-0.005,0.033c-0.003,0.018-0.006,0.036-0.009,0.055
		L148.064,128H135v-16.5c0-8.547-6.953-15.5-15.5-15.5h-32c-8.547,0-15.5,6.953-15.5,15.5V128h-9v-8.5c0-8.547-6.953-15.5-15.5-15.5
		h-16c-8.547,0-15.5,6.953-15.5,15.5v9.734c-9.29,3.138-16,11.93-16,22.266v224C0,388.458,10.542,399,23.5,399h159.998h0.002
		h104.495H439.5c12.958,0,23.5-10.542,23.5-23.5v-224C463,138.542,452.458,128,439.5,128z M15,223h58.234
		c3.138,9.29,11.93,16,22.266,16s19.128-6.71,22.266-16h15.39l-1.661,10.586c-1.548,9.86-2.333,19.924-2.333,29.914
		c0,9.989,0.785,20.054,2.333,29.914L140.688,352H15V223z M87,215.5c0-4.687,3.813-8.5,8.5-8.5s8.5,3.813,8.5,8.5
		s-3.813,8.5-8.5,8.5S87,220.187,87,215.5z M165.915,111h131.17l14.071,89.665C292.552,177.13,263.76,162,231.5,162
		s-61.052,15.13-79.656,38.665L165.915,111z M145,263.5c0-47.696,38.804-86.5,86.5-86.5s86.5,38.804,86.5,86.5
		S279.196,350,231.5,350S145,311.196,145,263.5z M331.506,293.414c1.548-9.86,2.333-19.924,2.333-29.914
		c0-9.989-0.785-20.054-2.333-29.914L329.844,223H448v129H322.312L331.506,293.414z M367,111.5c0-0.276,0.225-0.5,0.5-0.5h48
		c0.275,0,0.5,0.224,0.5,0.5V128h-49V111.5z M439.5,143c4.687,0,8.5,3.813,8.5,8.5V208H327.491l-10.2-65H439.5z M187.25,79h88.5
		l12.75,17h-114L187.25,79z M87,111.5c0-0.276,0.225-0.5,0.5-0.5h32c0.275,0,0.5,0.224,0.5,0.5V128H87V111.5z M31.5,119h16
		c0.275,0,0.5,0.224,0.5,0.5v8.5H31v-8.5C31,119.224,31.225,119,31.5,119z M23.5,143h122.21l-10.2,65h-17.744
		c-3.138-9.29-11.93-16-22.266-16s-19.128,6.71-22.266,16H15v-56.5C15,146.813,18.813,143,23.5,143z M15,375.5V367h128.042
		l0.844,5.381c0.665,4.242,2.142,8.162,4.252,11.619H23.5C18.813,384,15,380.187,15,375.5z M183.502,384l-8.5-0.002
		c-8.177-0.002-15.03-5.865-16.297-13.942l-6.861-43.721C170.448,349.87,199.24,365,231.5,365s61.052-15.13,79.656-38.665
		l-6.861,43.723c-1.268,8.078-8.123,13.941-16.3,13.942H183.502z M439.5,384H314.862c2.11-3.457,3.586-7.375,4.251-11.617
		l0.845-5.383H448v8.5C448,380.187,444.187,384,439.5,384z"/>
	<path d="M231.5,335c39.425,0,71.5-32.075,71.5-71.5S270.925,192,231.5,192S160,224.075,160,263.5S192.075,335,231.5,335z
		 M231.5,207c31.154,0,56.5,25.346,56.5,56.5S262.654,320,231.5,320S175,294.654,175,263.5S200.346,207,231.5,207z"/>
	<path d="M231.5,295c17.369,0,31.5-14.131,31.5-31.5S248.869,232,231.5,232S200,246.131,200,263.5S214.131,295,231.5,295z
		 M231.5,247c9.098,0,16.5,7.402,16.5,16.5s-7.402,16.5-16.5,16.5s-16.5-7.402-16.5-16.5S222.402,247,231.5,247z"/>
</g>
<g>
</g>
<g>
</g>
<g>
</g>
<g>
</g>
<g>
</g>
<g>
</g>
<g>
</g>
<g>
</g>
<g>
</g>
<g>
</g>
<g>
</g>
<g>
</g>
<g>
</g>
<g>
</g>
<g>
</g>
</svg>
