<?xml version="1.0" encoding="iso-8859-1"?>
<!-- Generator: Adobe Illustrator 19.0.0, SVG Export Plug-In . SVG Version: 6.00 Build 0)  -->
<svg version="1.1" id="Capa_1" xmlns="http://www.w3.org/2000/svg" xmlns:xlink="http://www.w3.org/1999/xlink" x="0px" y="0px"
	 viewBox="0 0 512 512" style="enable-background:new 0 0 512 512;" xml:space="preserve">
<g>
	<g>
		<path d="M0,14.73v226.54c0,68.38,26.629,132.667,74.98,181.019C123.333,470.641,187.62,497.27,256,497.27
			s132.667-26.628,181.02-74.981C485.371,373.937,512,309.65,512,241.27V14.73H0z M390.086,44.73h30v30h-30V44.73z M330.086,44.73
			h30v30h-30V44.73z M270.086,44.73h30v30h-30V44.73z M210.086,44.73h30v30h-30V44.73z M150.086,44.73h30v30h-30V44.73z
			 M90.086,44.73h30v30h-30V44.73z M30,44.73h30.086v30H30V44.73z M30,163.406h111.515v32.366H30V163.406z M158.305,445.181
			c-22.753-10.922-43.737-25.731-62.111-44.105c-31.893-31.893-53.075-71.642-61.75-114.881c2.271-0.125,4.547-0.195,6.822-0.195
			c67.597,0,122.591,54.995,122.591,122.592C163.857,421.162,161.987,433.414,158.305,445.181z M415.806,401.076
			c-21.308,21.308-46.122,37.836-73.14,49.047c-4.782-13.244-7.205-27.16-7.205-41.532c0-67.597,54.994-122.592,122.592-122.592
			c6.464,0,12.891,0.517,19.225,1.513C468.439,330.241,447.375,369.508,415.806,401.076z M482,195.773H370.485v-32.366H482V195.773z
			 M482,133.406H340.485v92.366H482c0,0-0.202,26.553-0.595,32.028c-7.702-1.184-15.507-1.801-23.352-1.801
			c-84.14,0-152.592,68.452-152.592,152.592c0,17.674,2.943,34.805,8.767,51.131c-18.766,4.969-38.297,7.547-58.228,7.547
			c-24.048,0.001-47.518-3.742-69.758-10.929c5.058-15.328,7.615-31.327,7.615-47.748c0-84.14-68.452-152.592-152.591-152.592
			c-3.588,0-7.178,0.131-10.757,0.381C30.18,251.373,30,225.773,30,225.773h141.515v-92.366H30V104.73h452V133.406z M482,74.73
			h-31.914v-30H482V74.73z"/>
	</g>
</g>
<g>
</g>
<g>
</g>
<g>
</g>
<g>
</g>
<g>
</g>
<g>
</g>
<g>
</g>
<g>
</g>
<g>
</g>
<g>
</g>
<g>
</g>
<g>
</g>
<g>
</g>
<g>
</g>
<g>
</g>
</svg>
